<?xml version="1.0" standalone="no"?>
<!DOCTYPE svg PUBLIC "-//W3C//DTD SVG 20010904//EN"
 "http://www.w3.org/TR/2001/REC-SVG-20010904/DTD/svg10.dtd">
<svg version="1.0" xmlns="http://www.w3.org/2000/svg"
 width="2000.000000pt" height="1500.000000pt" viewBox="0 0 2000.000000 1500.000000"
 preserveAspectRatio="xMidYMid meet">

<g transform="translate(0.000000,1500.000000) scale(0.100000,-0.100000)"
fill="#000000" stroke="none">
<path d="M4470 9713 c-366 -56 -634 -151 -910 -322 -552 -343 -923 -912 -1026
-1576 -23 -150 -23 -469 0 -620 92 -598 397 -1113 870 -1469 284 -214 622
-356 986 -416 161 -26 507 -28 669 -4 316 47 619 161 884 334 155 100 236 167
372 304 182 184 308 361 420 591 299 615 297 1335 -5 1950 -324 659 -945 1111
-1671 1219 -98 15 -512 21 -589 9z m520 -88 c348 -42 665 -160 951 -356 742
-508 1086 -1423 863 -2297 -144 -565 -521 -1053 -1034 -1336 -832 -461 -1868
-314 -2544 360 -665 664 -817 1683 -375 2513 132 247 334 491 552 666 298 240
709 410 1097 454 119 13 365 12 490 -4z"/>
<path d="M4708 8768 c-15 -5 -312 -139 -660 -298 -482 -220 -636 -294 -645
-312 -8 -15 -13 -70 -13 -155 l0 -133 130 0 130 0 0 -610 c0 -592 1 -610 19
-620 26 -13 366 -13 392 0 18 10 19 28 19 620 l0 610 220 0 220 0 0 -610 c0
-592 1 -610 19 -620 26 -13 366 -13 392 0 18 10 19 28 19 620 l0 610 220 0
220 0 0 -610 c0 -592 1 -610 19 -620 12 -6 96 -10 205 -10 180 0 185 1 200 22
14 20 16 95 16 620 l0 598 125 0 125 0 0 139 c0 118 -3 142 -17 159 -16 18
-1240 583 -1303 602 -14 4 -37 3 -52 -2z"/>
<path d="M3465 6501 c-46 -27 -69 -69 -69 -124 0 -54 23 -91 75 -122 33 -20
55 -20 1224 -23 655 -2 1214 0 1243 3 133 16 185 160 92 250 l-31 30 -1252 3
c-1206 2 -1253 1 -1282 -17z"/>
<path d="M11060 8400 c-251 -39 -405 -226 -403 -486 2 -193 89 -341 246 -417
246 -120 545 -48 679 162 46 74 68 159 68 271 0 233 -113 390 -327 453 -67 20
-193 28 -263 17z m248 -184 c72 -36 127 -96 153 -164 17 -47 20 -73 17 -147
-5 -106 -27 -163 -83 -220 -62 -62 -135 -89 -235 -90 -77 0 -92 3 -152 33 -80
39 -129 93 -159 171 -17 47 -20 72 -17 151 5 109 22 152 85 211 73 70 129 89
248 86 75 -3 99 -8 143 -31z"/>
<path d="M7420 7926 l0 -476 214 0 c236 0 320 11 406 55 62 31 117 85 141 139
25 55 25 148 0 203 -21 44 -90 118 -121 128 -17 6 -16 10 15 50 79 105 58 240
-50 309 -76 50 -122 58 -372 63 l-233 6 0 -477z m446 310 c99 -41 98 -163 -2
-208 -40 -17 -170 -37 -246 -38 l-28 0 0 136 0 137 118 -5 c75 -4 131 -11 158
-22z m47 -373 c60 -19 113 -64 122 -102 4 -17 0 -44 -9 -64 -27 -67 -129 -97
-328 -97 l-108 0 0 140 0 139 78 3 c113 4 191 -2 245 -19z"/>
<path d="M8484 8386 c-3 -8 -4 -173 -2 -368 l3 -353 28 -57 c50 -102 139 -152
296 -167 226 -20 386 33 456 153 40 70 46 137 43 481 l-3 320 -82 3 -83 3 0
-333 c0 -326 -1 -335 -22 -378 -16 -32 -36 -52 -68 -70 -40 -22 -56 -25 -155
-25 -99 0 -115 3 -155 25 -32 18 -52 38 -67 70 -22 43 -23 52 -23 377 l0 333
-80 0 c-60 0 -82 -4 -86 -14z"/>
<path d="M9647 8393 c-4 -3 -7 -217 -7 -475 l0 -468 218 0 c237 0 315 11 399
54 73 37 109 70 138 131 58 118 20 254 -91 325 l-44 27 21 19 c66 60 83 176
37 254 -45 77 -109 112 -234 129 -83 12 -427 15 -437 4z m436 -152 c49 -19 77
-59 77 -108 0 -85 -74 -125 -257 -138 l-93 -7 0 137 0 138 123 -6 c67 -3 135
-10 150 -16z m17 -367 c81 -13 160 -79 160 -134 0 -31 -25 -75 -55 -94 -42
-28 -151 -46 -277 -46 l-118 0 0 140 0 139 78 4 c79 3 150 0 212 -9z"/>
<path d="M12193 8385 c-112 -31 -209 -101 -241 -174 -20 -48 -19 -138 1 -177
37 -72 114 -114 316 -175 79 -24 158 -52 175 -64 134 -90 5 -209 -209 -192
-58 5 -192 37 -256 62 -14 5 -22 -9 -43 -71 -14 -43 -23 -81 -18 -85 20 -19
177 -61 250 -67 167 -15 311 13 401 79 84 60 128 173 101 256 -34 105 -113
154 -365 228 -113 34 -173 67 -181 102 -11 44 7 75 60 102 66 34 218 42 332
16 42 -9 80 -13 84 -8 13 14 53 133 47 140 -4 3 -41 14 -84 24 -95 23 -292 25
-370 4z"/>
<path d="M13337 8393 c-4 -3 -7 -217 -7 -475 l0 -468 218 0 c237 0 315 11 399
54 74 37 109 70 139 132 60 123 18 259 -104 331 l-32 20 21 19 c66 60 83 176
37 254 -45 77 -109 112 -234 129 -83 12 -427 15 -437 4z m436 -152 c48 -18 77
-59 77 -105 0 -82 -58 -121 -202 -136 -51 -5 -105 -10 -120 -10 l-28 0 0 136
0 137 123 -6 c67 -3 135 -10 150 -16z m16 -367 c55 -9 129 -51 146 -84 20 -39
19 -68 -4 -106 -36 -59 -129 -84 -318 -84 l-113 0 0 140 0 139 78 4 c79 3 151
0 211 -9z"/>
<path d="M14660 8381 c-5 -11 -89 -219 -186 -463 -97 -244 -178 -449 -181
-456 -4 -10 13 -12 77 -10 l83 3 51 120 52 120 194 0 194 0 52 -120 51 -120
88 -3 c49 -2 85 1 83 6 -1 5 -86 219 -188 476 l-184 466 -88 0 c-76 0 -89 -2
-98 -19z m158 -354 c34 -90 62 -167 62 -170 0 -10 -260 -9 -260 1 0 14 124
332 130 332 3 0 34 -73 68 -163z"/>
<path d="M15430 7925 l0 -475 85 0 85 0 2 359 3 358 259 -358 258 -359 94 0
94 0 0 475 0 476 -82 -3 -83 -3 -5 -358 -5 -359 -261 359 -260 358 -92 3 -92
3 0 -476z"/>
<path d="M16650 7925 l0 -475 80 0 80 0 0 225 c0 124 3 225 8 225 4 0 106
-101 227 -226 l220 -225 107 3 107 3 -236 243 -236 243 229 230 229 229 -105
0 -105 0 -215 -215 c-118 -118 -218 -215 -222 -215 -5 0 -8 97 -8 215 l0 215
-80 0 -80 0 0 -475z"/>
<path d="M9387 7193 c-14 -13 -6 -53 12 -63 15 -7 24 -5 41 8 19 16 21 22 11
40 -11 21 -50 30 -64 15z"/>
<path d="M7990 6960 l0 -230 30 0 c24 0 30 4 30 21 l0 20 26 -20 c32 -25 101
-28 143 -6 88 45 93 236 8 297 -41 29 -107 29 -147 -1 l-30 -22 0 86 0 85 -30
0 -30 0 0 -230z m197 35 c13 -9 28 -33 34 -54 30 -99 -45 -192 -122 -151 -56
31 -66 153 -15 197 31 27 72 30 103 8z"/>
<path d="M9057 7183 c-4 -3 -7 -107 -7 -230 l0 -223 35 0 34 0 3 85 3 85 62
-85 c58 -79 65 -85 98 -85 42 0 43 -4 -32 96 -29 39 -53 74 -53 78 0 4 27 41
61 82 l60 74 -38 0 c-36 0 -42 -5 -98 -76 l-60 -77 -3 142 -3 141 -28 0 c-15
0 -31 -3 -34 -7z"/>
<path d="M7420 6950 l0 -220 125 0 125 0 0 30 0 30 -90 0 -90 0 0 65 0 65 80
0 80 0 0 30 0 30 -80 0 -80 0 0 70 0 70 90 0 c89 0 90 0 90 25 l0 25 -125 0
-125 0 0 -220z"/>
<path d="M8424 7061 c-45 -11 -54 -19 -54 -48 0 -20 4 -24 18 -18 9 4 38 10
65 13 57 6 87 -15 87 -60 0 -27 -1 -28 -55 -28 -61 0 -108 -19 -125 -49 -34
-65 15 -141 92 -141 24 0 54 7 66 16 20 14 22 14 22 0 0 -12 10 -16 36 -16
l36 0 -4 128 c-4 135 -14 168 -57 191 -27 15 -91 21 -127 12z m116 -213 c0
-41 -25 -68 -65 -68 -37 0 -55 15 -55 46 0 31 36 54 82 54 36 0 38 -2 38 -32z"/>
<path d="M8820 7059 c-13 -6 -33 -17 -42 -26 -17 -15 -18 -15 -18 5 0 18 -6
22 -35 22 l-35 0 0 -165 0 -165 35 0 35 0 0 115 c0 110 1 117 25 140 29 30 75
33 98 7 14 -15 17 -41 17 -140 l0 -122 35 0 35 0 0 120 c0 128 -12 180 -47
198 -31 17 -77 21 -103 11z"/>
<path d="M9670 7059 c-13 -6 -33 -17 -42 -26 -17 -15 -18 -15 -18 5 0 18 -6
22 -35 22 l-35 0 0 -165 0 -165 35 0 35 0 0 115 c0 110 1 117 25 140 29 30 75
33 98 7 14 -15 17 -41 17 -140 l0 -122 35 0 35 0 0 113 c0 128 -11 181 -43
201 -32 20 -78 27 -107 15z"/>
<path d="M9983 7059 c-18 -5 -45 -26 -60 -46 -37 -48 -44 -150 -15 -202 21
-39 73 -71 115 -71 32 0 83 24 90 42 3 7 6 -4 6 -24 2 -77 -79 -119 -162 -85
l-37 16 0 -34 c0 -33 2 -34 54 -45 70 -14 134 1 173 42 l28 29 3 190 3 189
-30 0 c-24 0 -31 -4 -31 -20 0 -21 0 -21 -27 -1 -36 26 -70 32 -110 20z m107
-74 c28 -30 37 -108 18 -145 -37 -69 -127 -57 -148 20 -29 107 63 196 130 125z"/>
<path d="M9390 6895 l0 -165 30 0 30 0 0 165 0 165 -30 0 -30 0 0 -165z"/>
<path d="M7740 6905 c0 -25 1 -25 80 -25 79 0 80 0 80 25 0 25 -1 25 -80 25
-79 0 -80 0 -80 -25z"/>
</g>
</svg>
